# xmcd
#
# Track frame offsets:
#	150
#	16850
#	33372
#	51225
#	69520
#	86647
#	101842
#	114945
#	135487
#	150842
#	162880
#	176730
#	186410
#
# Disc length: 2683 seconds
#
# Revision: 1
# Processed by: cddbd v1.4PL0 Copyright (c) Steve Scherf et al.
# Submitted via: audiograbber 1.81.02
#
DISCID=a00a790d
DTITLE=Márcio and Marciel - Márcio and Marciel
DYEAR=2001
DGENRE=Country
TTITLE0=Trilhas
TTITLE1=Feito Fogo
TTITLE2=Dança Diferente
TTITLE3=Diz a Verdade
TTITLE4=Intimidade
TTITLE5=A Fome da Guilhermina
TTITLE6=O Debaixo é Meu
TTITLE7=Se ela não Voltar
TTITLE8=Morena
TTITLE9=Bate que eu Gamo
TTITLE10=Ah! Se ela me desse Bola
TTITLE11=Esquecido
TTITLE12=A mágoa do tico-tico
EXTD=
EXTT0=
EXTT1=
EXTT2=
EXTT3=
EXTT4=
EXTT5=
EXTT6=
EXTT7=
EXTT8=
EXTT9=
EXTT10=
EXTT11=
EXTT12=
PLAYORDER=
